<svg viewBox="0 0 423 70" fill="none" xmlns="http://www.w3.org/2000/svg">
    <path
        d="M99.6686 50.24C98.4686 50.24 97.4686 50.1333 96.6686 49.92C95.8686 49.68 95.2286 49.3067 94.7486 48.8C94.2686 48.2933 93.9219 47.64 93.7086 46.84C93.5219 46.04 93.4286 45.0667 93.4286 43.92V21.96C93.4286 21.2933 93.5352 20.7067 93.7486 20.2C93.9886 19.6933 94.2952 19.2667 94.6686 18.92C95.0686 18.5733 95.5219 18.32 96.0286 18.16C96.5352 17.9733 97.0552 17.88 97.5886 17.88C98.1219 17.88 98.6419 17.9733 99.1486 18.16C99.6552 18.32 100.095 18.5733 100.469 18.92C100.869 19.2667 101.175 19.6933 101.389 20.2C101.629 20.7067 101.749 21.2933 101.749 21.96V42.08C101.749 42.56 101.829 42.88 101.989 43.04C102.149 43.1733 102.455 43.24 102.909 43.24H111.789C112.375 43.24 112.869 43.3467 113.269 43.56C113.695 43.7467 114.029 44.0133 114.269 44.36C114.535 44.68 114.722 45.0533 114.829 45.48C114.962 45.88 115.029 46.28 115.029 46.68C115.029 47.08 114.962 47.4933 114.829 47.92C114.722 48.3467 114.535 48.7333 114.269 49.08C114.002 49.4267 113.669 49.7067 113.269 49.92C112.869 50.1333 112.375 50.24 111.789 50.24H99.6686ZM125.769 30.48H136.689C137.276 30.48 137.769 30.5867 138.169 30.8C138.569 31.0133 138.903 31.2933 139.169 31.64C139.436 31.9867 139.623 32.3733 139.729 32.8C139.863 33.2 139.929 33.6 139.929 34C139.929 34.4 139.863 34.8 139.729 35.2C139.623 35.6 139.436 35.9733 139.169 36.32C138.929 36.64 138.596 36.9067 138.169 37.12C137.769 37.3067 137.276 37.4 136.689 37.4H125.769V42.08C125.769 42.56 125.849 42.88 126.009 43.04C126.169 43.1733 126.476 43.24 126.929 43.24H137.449C138.036 43.24 138.529 43.3467 138.929 43.56C139.356 43.7467 139.689 44.0133 139.929 44.36C140.196 44.68 140.383 45.0533 140.489 45.48C140.623 45.88 140.689 46.28 140.689 46.68C140.689 47.08 140.623 47.4933 140.489 47.92C140.383 48.3467 140.196 48.7333 139.929 49.08C139.663 49.4267 139.329 49.7067 138.929 49.92C138.529 50.1333 138.036 50.24 137.449 50.24H123.809C122.609 50.24 121.609 50.1333 120.809 49.92C120.009 49.68 119.369 49.3067 118.889 48.8C118.409 48.2933 118.063 47.64 117.849 46.84C117.663 46.04 117.569 45.0667 117.569 43.92V24.36C117.569 23.2133 117.663 22.24 117.849 21.44C118.063 20.64 118.409 19.9867 118.889 19.48C119.369 18.9733 120.009 18.6133 120.809 18.4C121.609 18.16 122.609 18.04 123.809 18.04H137.049C137.636 18.04 138.129 18.1467 138.529 18.36C138.929 18.5733 139.263 18.8533 139.529 19.2C139.796 19.5467 139.983 19.9333 140.089 20.36C140.223 20.7867 140.289 21.2 140.289 21.6C140.289 22 140.223 22.4133 140.089 22.84C139.983 23.24 139.796 23.6133 139.529 23.96C139.289 24.28 138.956 24.5467 138.529 24.76C138.129 24.9467 137.636 25.04 137.049 25.04H126.929C126.476 25.04 126.169 25.12 126.009 25.28C125.849 25.4133 125.769 25.72 125.769 26.2V30.48ZM152.174 21.2C152.574 20.08 153.254 19.2533 154.214 18.72C155.2 18.16 156.24 17.88 157.334 17.88C158.347 17.88 159.32 18.16 160.254 18.72C161.214 19.28 161.88 20.1067 162.254 21.2L172.694 50.24H163.894L162.334 45.28H152.054L150.534 50.24H141.894L152.174 21.2ZM154.134 38.52H160.254L157.214 28.56L154.134 38.52ZM200.435 28.96C200.435 30.88 199.981 32.56 199.075 34C198.195 35.4133 197.035 36.5733 195.595 37.48L203.195 50.24H194.155L188.155 39.48H183.035V50.24H174.835V24.36C174.835 23.2133 174.928 22.24 175.115 21.44C175.328 20.64 175.675 19.9867 176.155 19.48C176.635 18.9733 177.275 18.6133 178.075 18.4C178.875 18.16 179.875 18.04 181.075 18.04H188.435C190.168 18.04 191.768 18.2533 193.235 18.68C194.701 19.08 195.968 19.72 197.035 20.6C198.101 21.4533 198.928 22.5333 199.515 23.84C200.128 25.1467 200.435 26.6933 200.435 28.48V28.96ZM183.035 32.72H188.235C189.595 32.72 190.608 32.3467 191.275 31.6C191.968 30.8533 192.315 29.9733 192.315 28.96V28.68C192.315 27.6667 191.968 26.7867 191.275 26.04C190.608 25.2933 189.595 24.92 188.235 24.92H184.195C183.741 24.92 183.435 25 183.275 25.16C183.115 25.2933 183.035 25.6 183.035 26.08V32.72ZM223.677 37.64V21.68C223.677 20.4533 224.037 19.52 224.757 18.88C225.503 18.2133 226.357 17.88 227.317 17.88C228.277 17.88 229.117 18.2133 229.837 18.88C230.583 19.52 230.957 20.4533 230.957 21.68V46.88C230.957 47.4933 230.837 48.0267 230.597 48.48C230.357 48.9333 230.05 49.32 229.677 49.64C229.303 49.96 228.877 50.2133 228.397 50.4C227.943 50.5867 227.49 50.6933 227.037 50.72C226.077 50.8 225.09 50.64 224.077 50.24C223.063 49.8667 222.303 49.2533 221.797 48.4L212.037 31.12V50.24H204.757V21.96C204.757 21.3467 204.877 20.8 205.117 20.32C205.357 19.84 205.663 19.44 206.037 19.12C206.437 18.7733 206.877 18.5067 207.357 18.32C207.837 18.1333 208.303 18.0133 208.757 17.96C209.717 17.8533 210.69 18 211.677 18.4C212.663 18.8 213.41 19.4267 213.917 20.28L223.677 37.64ZM243.104 27.4C243.078 28.1467 243.504 28.7867 244.384 29.32C245.264 29.8533 246.504 30.3867 248.104 30.92L250.064 31.6C251.238 32.0267 252.291 32.56 253.224 33.2C254.184 33.84 254.998 34.6 255.664 35.48C256.331 36.3333 256.824 37.3067 257.144 38.4C257.464 39.4667 257.584 40.64 257.504 41.92C257.318 44.7733 256.158 46.9867 254.024 48.56C251.918 50.1333 249.038 50.92 245.384 50.92C243.598 50.92 241.878 50.72 240.224 50.32C238.571 49.9467 237.198 49.3333 236.104 48.48C235.731 48.16 235.411 47.8 235.144 47.4C234.878 46.9733 234.678 46.5333 234.544 46.08C234.438 45.6267 234.424 45.16 234.504 44.68C234.584 44.1733 234.771 43.6933 235.064 43.24C235.358 42.7867 235.771 42.44 236.304 42.2C236.838 41.96 237.371 41.8267 237.904 41.8C238.598 41.7733 239.144 41.88 239.544 42.12C239.971 42.36 240.371 42.5867 240.744 42.8C241.198 43.0933 241.784 43.3467 242.504 43.56C243.224 43.7467 244.264 43.84 245.624 43.84C246.744 43.84 247.611 43.64 248.224 43.24C248.838 42.84 249.158 42.2 249.184 41.32C249.184 40.9467 249.038 40.5867 248.744 40.24C248.451 39.8933 248.024 39.5733 247.464 39.28C246.931 38.9867 246.304 38.7067 245.584 38.44C244.864 38.1467 244.091 37.8667 243.264 37.6C242.944 37.4933 242.598 37.3733 242.224 37.24C241.878 37.1067 241.584 36.9867 241.344 36.88C239.824 36.24 238.598 35.4533 237.664 34.52C236.731 33.56 236.024 32.5333 235.544 31.44C235.091 30.32 234.851 29.1733 234.824 28C234.824 26.8267 234.998 25.72 235.344 24.68C236.038 22.52 237.318 20.8533 239.184 19.68C241.078 18.5067 243.398 17.92 246.144 17.92C247.184 17.92 248.091 17.9733 248.864 18.08C249.664 18.16 250.358 18.28 250.944 18.44C251.558 18.5733 252.078 18.7467 252.504 18.96C252.958 19.1467 253.371 19.3333 253.744 19.52C254.678 20.0267 255.398 20.7333 255.904 21.64C256.438 22.5467 256.558 23.48 256.264 24.44C255.998 25.2667 255.544 25.8533 254.904 26.2C254.291 26.5467 253.598 26.72 252.824 26.72C252.531 26.72 252.198 26.6667 251.824 26.56C251.451 26.4533 251.171 26.3333 250.984 26.2C250.504 25.88 249.891 25.6 249.144 25.36C248.398 25.12 247.424 25 246.224 25C245.264 25 244.504 25.2 243.944 25.6C243.411 25.9733 243.131 26.5733 243.104 27.4ZM267.777 50.24V25.12H261.657C261.07 25.12 260.564 25.0133 260.137 24.8C259.737 24.5867 259.404 24.3067 259.137 23.96C258.897 23.6133 258.71 23.2267 258.577 22.8C258.47 22.3733 258.417 21.96 258.417 21.56C258.417 21.16 258.47 20.76 258.577 20.36C258.71 19.9333 258.897 19.56 259.137 19.24C259.404 18.8933 259.737 18.6267 260.137 18.44C260.564 18.2267 261.07 18.12 261.657 18.12H282.217C282.804 18.12 283.297 18.2267 283.697 18.44C284.124 18.6267 284.457 18.8933 284.697 19.24C284.964 19.56 285.15 19.9333 285.257 20.36C285.39 20.76 285.457 21.16 285.457 21.56C285.457 21.96 285.39 22.3733 285.257 22.8C285.15 23.2267 284.964 23.6133 284.697 23.96C284.43 24.3067 284.097 24.5867 283.697 24.8C283.297 25.0133 282.804 25.12 282.217 25.12H276.097V50.24H267.777ZM313.208 28.96C313.208 30.88 312.755 32.56 311.848 34C310.968 35.4133 309.808 36.5733 308.368 37.48L315.968 50.24H306.928L300.928 39.48H295.808V50.24H287.608V24.36C287.608 23.2133 287.702 22.24 287.888 21.44C288.102 20.64 288.448 19.9867 288.928 19.48C289.408 18.9733 290.048 18.6133 290.848 18.4C291.648 18.16 292.648 18.04 293.848 18.04H301.208C302.942 18.04 304.542 18.2533 306.008 18.68C307.475 19.08 308.742 19.72 309.808 20.6C310.875 21.4533 311.702 22.5333 312.288 23.84C312.902 25.1467 313.208 26.6933 313.208 28.48V28.96ZM295.808 32.72H301.008C302.368 32.72 303.382 32.3467 304.048 31.6C304.742 30.8533 305.088 29.9733 305.088 28.96V28.68C305.088 27.6667 304.742 26.7867 304.048 26.04C303.382 25.2933 302.368 24.92 301.008 24.92H296.968C296.515 24.92 296.208 25 296.048 25.16C295.888 25.2933 295.808 25.6 295.808 26.08V32.72ZM325.73 30.48H336.65C337.237 30.48 337.73 30.5867 338.13 30.8C338.53 31.0133 338.863 31.2933 339.13 31.64C339.397 31.9867 339.583 32.3733 339.69 32.8C339.823 33.2 339.89 33.6 339.89 34C339.89 34.4 339.823 34.8 339.69 35.2C339.583 35.6 339.397 35.9733 339.13 36.32C338.89 36.64 338.557 36.9067 338.13 37.12C337.73 37.3067 337.237 37.4 336.65 37.4H325.73V42.08C325.73 42.56 325.81 42.88 325.97 43.04C326.13 43.1733 326.437 43.24 326.89 43.24H337.41C337.997 43.24 338.49 43.3467 338.89 43.56C339.317 43.7467 339.65 44.0133 339.89 44.36C340.157 44.68 340.343 45.0533 340.45 45.48C340.583 45.88 340.65 46.28 340.65 46.68C340.65 47.08 340.583 47.4933 340.45 47.92C340.343 48.3467 340.157 48.7333 339.89 49.08C339.623 49.4267 339.29 49.7067 338.89 49.92C338.49 50.1333 337.997 50.24 337.41 50.24H323.77C322.57 50.24 321.57 50.1333 320.77 49.92C319.97 49.68 319.33 49.3067 318.85 48.8C318.37 48.2933 318.023 47.64 317.81 46.84C317.623 46.04 317.53 45.0667 317.53 43.92V24.36C317.53 23.2133 317.623 22.24 317.81 21.44C318.023 20.64 318.37 19.9867 318.85 19.48C319.33 18.9733 319.97 18.6133 320.77 18.4C321.57 18.16 322.57 18.04 323.77 18.04H337.01C337.597 18.04 338.09 18.1467 338.49 18.36C338.89 18.5733 339.223 18.8533 339.49 19.2C339.757 19.5467 339.943 19.9333 340.05 20.36C340.183 20.7867 340.25 21.2 340.25 21.6C340.25 22 340.183 22.4133 340.05 22.84C339.943 23.24 339.757 23.6133 339.49 23.96C339.25 24.28 338.917 24.5467 338.49 24.76C338.09 24.9467 337.597 25.04 337.01 25.04H326.89C326.437 25.04 326.13 25.12 325.97 25.28C325.81 25.4133 325.73 25.72 325.73 26.2V30.48ZM352.134 21.2C352.534 20.08 353.214 19.2533 354.174 18.72C355.161 18.16 356.201 17.88 357.294 17.88C358.308 17.88 359.281 18.16 360.214 18.72C361.174 19.28 361.841 20.1067 362.214 21.2L372.654 50.24H363.854L362.294 45.28H352.014L350.494 50.24H341.854L352.134 21.2ZM354.094 38.52H360.214L357.174 28.56L354.094 38.52ZM391.756 48.8C391.382 48.8 390.969 48.76 390.516 48.68C390.062 48.6 389.622 48.48 389.196 48.32C388.769 48.16 388.396 47.96 388.076 47.72C387.782 47.48 387.582 47.1867 387.476 46.84L383.436 32.24L381.596 50.24H374.036L377.396 21.96C377.449 21.3467 377.609 20.8 377.876 20.32C378.169 19.84 378.516 19.44 378.916 19.12C379.316 18.7733 379.742 18.5067 380.196 18.32C380.676 18.1333 381.142 18.0133 381.596 17.96C382.076 17.9333 382.582 17.96 383.116 18.04C383.676 18.12 384.196 18.2933 384.676 18.56C385.182 18.8 385.636 19.1467 386.036 19.6C386.436 20.0267 386.729 20.5733 386.916 21.24L391.756 39.56L396.596 21.24C396.782 20.5733 397.062 20.0267 397.436 19.6C397.836 19.1467 398.289 18.8 398.796 18.56C399.302 18.2933 399.822 18.12 400.356 18.04C400.916 17.96 401.436 17.9333 401.916 17.96C402.369 18.0133 402.822 18.1333 403.276 18.32C403.756 18.5067 404.196 18.7733 404.596 19.12C404.996 19.44 405.329 19.84 405.596 20.32C405.889 20.8 406.062 21.3467 406.116 21.96L409.476 50.24H401.916L400.116 32.12L396.036 46.84C395.929 47.1867 395.716 47.48 395.396 47.72C395.102 47.96 394.742 48.16 394.316 48.32C393.889 48.48 393.449 48.6 392.996 48.68C392.542 48.76 392.129 48.8 391.756 48.8Z"
        fill="current" />
    <path
        d="M52.696 57.4816C48.1522 59.9256 42.9652 60.9086 37.8422 60.2967C32.7192 59.6848 27.9096 57.5078 24.0692 54.0625C20.2288 50.6171 17.5444 46.0711 16.3822 41.0444C15.2199 36.0176 15.6363 30.7547 17.5746 25.9732L17.8088 26.0681C15.89 30.8014 15.4778 36.0113 16.6284 40.9874C17.7789 45.9636 20.4362 50.4637 24.2379 53.8744C28.0397 57.285 32.8008 59.4401 37.8722 60.0458C42.9435 60.6515 48.0783 59.6784 52.5763 57.2591L52.696 57.4816Z"
        fill="current" />
    <path
        d="M28.9368 13.3079C33.4806 10.864 38.6677 9.88095 43.7906 10.4928C48.9136 11.1047 53.7232 13.2817 57.5636 16.7271C61.404 20.1724 64.0884 24.7184 65.2506 29.7452C66.4129 34.772 65.9965 40.0349 64.0582 44.8163L63.8241 44.7214C65.7428 39.9881 66.155 34.7782 65.0045 29.8021C63.8539 24.826 61.1966 20.3258 57.3949 16.9152C53.5932 13.5045 48.832 11.3494 43.7607 10.7437C38.6893 10.138 33.5545 11.1112 29.0565 13.5305L28.9368 13.3079Z"
        fill="current" />
    <path
        d="M28.7294 9V9C28.8062 11.7831 31.0443 14.0212 33.8274 14.098V14.098V14.098C31.0443 14.1749 28.8062 16.4129 28.7294 19.196V19.196V19.196C28.6525 16.4129 26.4144 14.1749 23.6313 14.098V14.098V14.098C26.4144 14.0212 28.6525 11.7831 28.7294 9V9Z"
        fill="current" />
    <path
        d="M68.9978 42.6618V42.6618C66.4345 43.7485 65.167 46.6488 66.1107 49.2681V49.2681V49.2681C65.0239 46.7048 62.1237 45.4374 59.5043 46.381V46.381V46.381C62.0676 45.2942 63.3351 42.394 62.3914 39.7746V39.7746V39.7746C63.4782 42.338 66.3784 43.6054 68.9978 42.6618V42.6618Z"
        fill="current" />
    <path
        d="M53.3564 61.6589V61.6589C53.2312 58.8776 50.9546 56.6788 48.1705 56.6503V56.6503V56.6503C50.9519 56.5251 53.1507 54.2485 53.1792 51.4644V51.4644V51.4644C53.3044 54.2458 55.581 56.4446 58.365 56.4731V56.4731V56.4731C55.5837 56.5983 53.3848 58.8749 53.3564 61.6589V61.6589Z"
        fill="current" />
    <path
        d="M22.7006 25.2938V25.2938C19.9434 25.6803 17.9687 28.1538 18.2025 30.9281V30.9281V30.9281C17.816 28.1709 15.3425 26.1962 12.5681 26.43V26.43V26.43C15.3253 26.0435 17.3001 23.5699 17.0663 20.7956V20.7956V20.7956C17.4528 23.5528 19.9263 25.5276 22.7006 25.2938V25.2938Z"
        fill="current" />
</svg>